<svg width="30" height="30" viewBox="0 0 30 30" fill="none" xmlns="http://www.w3.org/2000/svg">
<path d="M6.73403 0.955813C5.46578 0.955813 4.22602 1.33189 3.17151 2.03649C2.117 2.74109 1.29511 3.74257 0.809771 4.91428C0.324434 6.08598 0.197447 7.3753 0.44487 8.61917C0.692293 9.86305 1.30301 11.0056 2.1998 11.9024C3.09658 12.7992 4.23916 13.4099 5.48304 13.6573C6.72692 13.9048 8.01623 13.7778 9.18794 13.2924C10.3596 12.8071 11.3611 11.9852 12.0657 10.9307C12.7703 9.8762 13.1464 8.63643 13.1464 7.36818C13.1464 5.66752 12.4708 4.03651 11.2683 2.83395C10.0657 1.6314 8.43469 0.955813 6.73403 0.955813ZM6.73403 11.7556C5.86628 11.7556 5.01802 11.4983 4.29651 11.0162C3.57501 10.5341 3.01266 9.84887 2.68059 9.04717C2.34852 8.24548 2.26163 7.36332 2.43092 6.51224C2.60021 5.66117 3.01807 4.87941 3.63166 4.26582C4.24525 3.65222 5.02701 3.23436 5.87809 3.06508C6.72916 2.89579 7.61132 2.98267 8.41302 3.31474C9.21471 3.64682 9.89993 4.20916 10.382 4.93067C10.8641 5.65218 11.1214 6.50044 11.1214 7.36818C11.1214 7.94435 11.008 8.51487 10.7875 9.04717C10.567 9.57948 10.2438 10.0631 9.8364 10.4706C9.42899 10.878 8.94532 11.2011 8.41302 11.4216C7.88071 11.6421 7.31019 11.7556 6.73403 11.7556ZM22.9337 13.7806C24.2019 13.7806 25.4417 13.4045 26.4962 12.6999C27.5507 11.9953 28.3726 10.9938 28.858 9.82209C29.3433 8.65038 29.4703 7.36107 29.2229 6.11719C28.9754 4.87331 28.3647 3.73074 27.4679 2.83395C26.5711 1.93717 25.4286 1.32645 24.1847 1.07903C22.9408 0.831603 21.6515 0.958589 20.4798 1.44393C19.3081 1.92926 18.3066 2.75115 17.602 3.80566C16.8974 4.86017 16.5213 6.09994 16.5213 7.36818C16.5213 9.06885 17.1969 10.6999 18.3995 11.9024C19.602 13.105 21.233 13.7806 22.9337 13.7806ZM22.9337 2.98077C23.8014 2.98077 24.6497 3.23809 25.3712 3.72018C26.0927 4.20228 26.6551 4.8875 26.9871 5.68919C27.3192 6.49089 27.4061 7.37305 27.2368 8.22413C27.0675 9.0752 26.6497 9.85696 26.0361 10.4706C25.4225 11.0841 24.6407 11.502 23.7896 11.6713C22.9386 11.8406 22.0564 11.7537 21.2547 11.4216C20.453 11.0896 19.7678 10.5272 19.2857 9.8057C18.8036 9.08419 18.5463 8.23593 18.5463 7.36818C18.5463 6.20457 19.0085 5.08861 19.8313 4.26582C20.6541 3.44302 21.7701 2.98077 22.9337 2.98077ZM6.73403 17.1555C5.46578 17.1555 4.22602 17.5316 3.17151 18.2362C2.117 18.9408 1.29511 19.9422 0.809771 21.1139C0.324434 22.2857 0.197447 23.575 0.44487 24.8188C0.692293 26.0627 1.30301 27.2053 2.1998 28.1021C3.09658 28.9989 4.23916 29.6096 5.48304 29.857C6.72692 30.1044 8.01623 29.9775 9.18794 29.4921C10.3596 29.0068 11.3611 28.1849 12.0657 27.1304C12.7703 26.0759 13.1464 24.8361 13.1464 23.5679C13.1464 21.8672 12.4708 20.2362 11.2683 19.0336C10.0657 17.8311 8.43469 17.1555 6.73403 17.1555ZM6.73403 27.9553C5.86628 27.9553 5.01802 27.698 4.29651 27.2159C3.57501 26.7338 3.01266 26.0485 2.68059 25.2468C2.34852 24.4452 2.26163 23.563 2.43092 22.7119C2.60021 21.8608 3.01807 21.0791 3.63166 20.4655C4.24525 19.8519 5.02701 19.434 5.87809 19.2647C6.72916 19.0955 7.61132 19.1823 8.41302 19.5144C9.21471 19.8465 9.89993 20.4088 10.382 21.1303C10.8641 21.8518 11.1214 22.7001 11.1214 23.5679C11.1214 24.144 11.008 24.7145 10.7875 25.2468C10.567 25.7792 10.2438 26.2628 9.8364 26.6702C9.42899 27.0776 8.94532 27.4008 8.41302 27.6213C7.88071 27.8418 7.31019 27.9553 6.73403 27.9553ZM22.9337 17.1555C21.6655 17.1555 20.4257 17.5316 19.3712 18.2362C18.3167 18.9408 17.4948 19.9422 17.0094 21.1139C16.5241 22.2857 16.3971 23.575 16.6445 24.8188C16.892 26.0627 17.5027 27.2053 18.3995 28.1021C19.2963 28.9989 20.4388 29.6096 21.6827 29.857C22.9266 30.1044 24.2159 29.9775 25.3876 29.4921C26.5593 29.0068 27.5608 28.1849 28.2654 27.1304C28.97 26.0759 29.3461 24.8361 29.3461 23.5679C29.3461 21.8672 28.6705 20.2362 27.4679 19.0336C26.2654 17.8311 24.6344 17.1555 22.9337 17.1555ZM22.9337 27.9553C22.066 27.9553 21.2177 27.698 20.4962 27.2159C19.7747 26.7338 19.2123 26.0485 18.8803 25.2468C18.5482 24.4452 18.4613 23.563 18.6306 22.7119C18.7999 21.8608 19.2177 21.0791 19.8313 20.4655C20.4449 19.8519 21.2267 19.434 22.0778 19.2647C22.9288 19.0955 23.811 19.1823 24.6127 19.5144C25.4144 19.8465 26.0996 20.4088 26.5817 21.1303C27.0638 21.8518 27.3211 22.7001 27.3211 23.5679C27.3211 24.7315 26.8589 25.8474 26.0361 26.6702C25.2133 27.493 24.0973 27.9553 22.9337 27.9553Z" fill="#F7F5ED"/>
</svg>
