<svg width="35" height="34" viewBox="0 0 35 34" fill="none" xmlns="http://www.w3.org/2000/svg">
<path d="M34.8136 16.2741C34.8136 20.8332 33.0025 25.2056 29.7788 28.4294C26.555 31.6531 22.1826 33.4642 17.6235 33.4642C13.0644 33.4642 8.692 31.6531 5.46822 28.4294C2.24445 25.2056 0.43335 20.8332 0.43335 16.2741C0.43335 9.50252 4.36854 3.32081 10.4609 0.524887C10.7027 0.424439 10.974 0.42169 11.2178 0.51722C11.4616 0.61275 11.6588 0.799109 11.768 1.03709C11.8771 1.27507 11.8897 1.54611 11.8031 1.7932C11.7165 2.04028 11.5374 2.24414 11.3036 2.36187C5.92914 4.82916 2.45572 10.2896 2.45572 16.2741C2.45572 20.2968 4.05375 24.1548 6.89826 26.9993C9.74276 29.8438 13.6007 31.4419 17.6235 31.4419C21.6462 31.4419 25.5042 29.8438 28.3487 26.9993C31.1932 24.1548 32.7913 20.2968 32.7913 16.2741C32.7913 10.2896 29.3178 4.82916 23.9434 2.36187C23.7095 2.24414 23.5305 2.04028 23.4439 1.7932C23.3572 1.54611 23.3698 1.27507 23.479 1.03709C23.5882 0.799109 23.7854 0.61275 24.0292 0.51722C24.2729 0.42169 24.5443 0.424439 24.786 0.524887C30.8784 3.32081 34.8136 9.50252 34.8136 16.2741Z" fill="#F7F5ED"/>
</svg>
